<svg width="1214" height="700" xmlns="http://www.w3.org/2000/svg">
 <defs>
  <clipPath id="clip_0">
   <rect id="svg_1" clip-rule="evenodd" height="700" width="1214" y="0" x="0"/>
  </clipPath>
 </defs>
 <defs>
  <clipPath id="clip_1">
   <rect id="svg_2" clip-rule="evenodd" height="700" width="1214" y="0" x="0"/>
  </clipPath>
 </defs>
 <defs>
  <clipPath id="clip_2">
   <rect id="svg_3" clip-rule="evenodd" height="700" width="1214" y="0" x="0"/>
  </clipPath>
 </defs>
 <defs>
  <clipPath id="clip_3">
   <rect id="svg_4" clip-rule="evenodd" height="700" width="1214" y="0" x="0"/>
  </clipPath>
 </defs>
 <defs>
  <clipPath id="clip_4">
   <rect id="svg_5" clip-rule="evenodd" height="700" width="1214" y="0" x="0"/>
  </clipPath>
 </defs>
 <defs>
  <clipPath id="clip_5">
   <rect id="svg_6" clip-rule="evenodd" height="700" width="1214" y="0" x="0"/>
  </clipPath>
 </defs>
 <defs>
  <clipPath id="clip_6">
   <rect id="svg_7" clip-rule="evenodd" height="700" width="1214" y="0" x="0"/>
  </clipPath>
 </defs>
 <g>
  <title>background</title>
  <rect fill="none" id="canvas_background" height="402" width="582" y="-1" x="-1"/>
 </g>
 <g>
  <title>Layer 1</title>
  <g id="svg_8" clip-path="url(#clip_0)">
   <path id="svg_9" d="m0,0l1214,0l0,700l-1214,0l0,-700z" fill="rgb(205,112,141)"/>
  </g>
  <g id="svg_10" clip-path="url(#clip_1)">
   <path id="svg_11" d="m1088,233.785c0,0 2.017,-11.811954 12.968,-11.784954c8.056,0.018 10.319,5.124004 10.319,5.124004c0,0 4.737,-2.692 9.292,-0.859c5.94,2.391 6.647,7.37895 6.647,7.37895c0,0 -22.397,0.141 -39.226,0.141" fill-opacity="0.098039" fill="rgb(255,255,255)"/>
  </g>
  <g id="svg_12" clip-path="url(#clip_2)">
   <path id="svg_13" d="m1148,604c0,0 -3.0846,-18.039376 -19.8357,-17.999935c-12.3235,0.028171 -15.7844,7.826145 -15.7844,7.826145c0,0 -7.247,-4.11122 -14.2138,-1.31093c-9.08648,3.65102 -10.1661,11.27062 -10.1661,11.27062c0,0 34.2583,0.2141 60,0.2141" fill-opacity="0.098039" fill="rgb(255,255,255)"/>
  </g>
  <g id="svg_14" clip-path="url(#clip_3)">
   <path id="svg_15" d="m930,298.34543c61.653,0 55.306,-10.31 40.669,-9.272c-12.496,0.884 -17,9.625 -17,9.625c0,0 -6.249,-4.392 -13.331,-1.542c-9.239,3.71797 -10.338,11.47497 -10.338,11.47497l102.845,2.137c0,0 -6.926,-12.27697 -20.176,-7.695c-4.75,-7.74997 -16.5,-7.99997 -21.016,-4.72797" fill-opacity="0.098039" fill="rgb(255,255,255)"/>
  </g>
  <g id="svg_16" clip-path="url(#clip_4)">
   <path id="svg_17" d="m469.5207,84.7212c0,0 -9.3188,-15.13741 -30.8093,-13.613388c-18.347,1.297918 -24.9599,14.131688 -24.9599,14.131688c0,0 -9.175,-6.44845 -19.5729,-2.264c-13.56502,5.4589 -15.1786,16.8479 -15.1786,16.8479l151,3.1376c0,0 -10.169,-18.0254 -29.623,-11.298c-6.974,-11.37876 -24.2258,-11.74581 -30.8563,-6.9418" fill-opacity="0.098039" fill="rgb(255,255,255)"/>
  </g>
  <g id="svg_18" clip-path="url(#clip_5)">
   <path id="svg_19" d="m1077.9603,336.89319c0,0 -4.7313,-9.610584 -15.4047,-8.850354c-9.1134,0.648533 -11.4796,8.957494 -11.4796,8.957494c0,0 -5.3731,-3.06827 -10.53745,-0.97906c-6.736963,2.72523 -7.53855,8.41263 -7.53855,8.41263l75,1.5661c0,0 -8.3084,-15.48727 -30.0397,-9.10681" fill-opacity="0.2" fill="rgb(255,255,255)"/>
  </g>
  <g id="svg_20" clip-path="url(#clip_6)">
   <path id="svg_21" d="m66.5413,572.3398c0,0 -7.0023,-14.41589 -22.7991,-13.275545c-13.4878,0.972795 -16.9898,13.436245 -16.9898,13.436245c0,0 -7.952,-4.60242 -15.5953,-1.4686c-9.97075,4.0878 -11.1571,12.619 -11.1571,12.619l111,2.3491c0,0 -12.2964,-23.23091 -44.4587,-13.6602" fill-opacity="0.2" fill="rgb(255,255,255)"/>
  </g>
 </g>
</svg>